# MagicaVoxel @ Ephtracy

# group
g Ain-3

# material
mtllib Ain-3.mtl
usemtl palette

# normals
vn -1 0 0
vn 1 0 0
vn 0 0 1
vn 0 0 -1
vn 0 -1 0
vn 0 1 0

# texcoords
vt 0.00195312 0.5
vt 0.00585938 0.5
vt 0.0644531 0.5
vt 0.314453 0.5

# verts
v -7 7 4.5
v -7 7 3.5
v -7 8 4.5
v -7 8 3.5
v -7 9 3.5
v -7 9 2.5
v -7 10 3.5
v -7 10 2.5
v -6 2 3.5
v -6 2 -3.5
v -6 3 4.5
v -6 3 3.5
v -6 3 -3.5
v -6 3 -4.5
v -6 7 4.5
v -6 7 3.5
v -6 8 3.5
v -6 8 -3.5
v -6 8 -4.5
v -6 9 3.5
v -6 9 2.5
v -6 9 1.5
v -6 9 -3.5
v -6 10 2.5
v -6 10 1.5
v -5 1 4.5
v -5 1 -3.5
v -5 2 5.5
v -5 2 4.5
v -5 2 3.5
v -5 2 -3.5
v -5 2 -4.5
v -5 3 4.5
v -5 3 3.5
v -5 3 -3.5
v -5 3 -4.5
v -5 3 -5.5
v -5 8 4.5
v -5 8 3.5
v -5 8 -3.5
v -5 8 -4.5
v -5 9 5.5
v -5 9 4.5
v -5 9 1.5
v -5 9 -3.5
v -5 9 -4.5
v -5 9 -5.5
v -5 10 4.5
v -5 10 3.5
v -5 10 1.5
v -5 10 -4.5
v -4 0 3.5
v -4 0 -3.5
v -4 1 3.5
v -4 1 -3.5
v -4 1 -4.5
v -4 2 -3.5
v -4 2 -4.5
v -4 2 -5.5
v -4 3 -4.5
v -4 3 -5.5
v -4 9 5.5
v -4 9 4.5
v -4 9 -4.5
v -4 9 -5.5
v -4 10 5.5
v -4 10 4.5
v -4 10 -4.5
v -4 10 -5.5
v -4 11 4.5
v -4 11 -4.5
v -3 0 -3.5
v -3 0 -4.5
v -3 1 -3.5
v -3 1 -4.5
v -3 1 -5.5
v -3 2 -4.5
v -3 2 -5.5
v -2 0 -4.5
v -2 0 -5.5
v -2 1 -4.5
v -2 1 -5.5
v -1 5 5.5
v -1 5 4.5
v -1 6 5.5
v -1 6 4.5
v 0 0 -4.5
v 0 0 -5.5
v 0 1 -4.5
v 0 1 -5.5
v 0 4 5.5
v 0 4 4.5
v 0 5 5.5
v 0 5 4.5
v 1 3 5.5
v 1 3 4.5
v 1 4 5.5
v 1 4 4.5
v 2 0 -4.5
v 2 0 -5.5
v 2 1 -4.5
v 2 1 -5.5
v 4 0 3.5
v 4 0 -3.5
v 4 1 3.5
v 4 1 -3.5
v 4 5 5.5
v 4 5 4.5
v 4 6 5.5
v 4 6 4.5
v 5 1 -1.5
v 5 1 -3.5
v 5 2 5.5
v 5 2 4.5
v 5 2 -1.5
v 5 2 -3.5
v 5 5 5.5
v 5 5 4.5
v -4 2 5.5
v -4 2 4.5
v -4 5 5.5
v -4 5 4.5
v -3 0 3.5
v -3 0 -3.5
v -3 1 3.5
v -3 1 -3.5
v -3 5 5.5
v -3 5 4.5
v -3 6 5.5
v -3 6 4.5
v -1 0 -4.5
v -1 0 -5.5
v -1 1 -4.5
v -1 1 -5.5
v 1 0 -4.5
v 1 0 -5.5
v 1 1 -4.5
v 1 1 -5.5
v 2 3 5.5
v 2 3 4.5
v 2 4 4.5
v 2 5 4.5
v 2 6 5.5
v 2 6 4.5
v 3 0 -4.5
v 3 0 -5.5
v 3 1 -4.5
v 3 1 -5.5
v 4 0 -3.5
v 4 0 -4.5
v 4 1 -1.5
v 4 1 -3.5
v 4 1 -4.5
v 4 1 -5.5
v 4 2 -1.5
v 4 2 -3.5
v 4 2 -4.5
v 4 2 -5.5
v 5 0 3.5
v 5 0 -3.5
v 5 1 3.5
v 5 1 -3.5
v 5 1 -4.5
v 5 2 -3.5
v 5 2 -4.5
v 5 2 -5.5
v 5 3 -4.5
v 5 3 -5.5
v 5 9 5.5
v 5 9 4.5
v 5 9 -4.5
v 5 9 -5.5
v 5 10 5.5
v 5 10 4.5
v 5 10 -4.5
v 5 10 -5.5
v 5 11 4.5
v 5 11 -4.5
v 6 1 4.5
v 6 1 -3.5
v 6 2 5.5
v 6 2 4.5
v 6 2 -3.5
v 6 2 -4.5
v 6 3 -3.5
v 6 3 -4.5
v 6 3 -5.5
v 6 8 4.5
v 6 8 3.5
v 6 8 -3.5
v 6 8 -4.5
v 6 9 5.5
v 6 9 4.5
v 6 9 3.5
v 6 9 -3.5
v 6 9 -4.5
v 6 9 -5.5
v 6 10 4.5
v 6 10 -4.5
v 7 2 4.5
v 7 2 -3.5
v 7 3 -3.5
v 7 3 -4.5
v 7 8 4.5
v 7 8 3.5
v 7 8 -3.5
v 7 8 -4.5
v 7 9 3.5
v 7 9 -3.5
v -5 2 5.5
v -5 9 5.5
v -4 2 5.5
v -4 5 5.5
v -4 9 5.5
v -4 10 5.5
v -3 5 5.5
v -3 6 5.5
v -1 5 5.5
v -1 6 5.5
v 0 4 5.5
v 0 5 5.5
v 1 3 5.5
v 1 4 5.5
v 2 3 5.5
v 2 6 5.5
v 4 5 5.5
v 4 6 5.5
v 5 2 5.5
v 5 5 5.5
v 5 9 5.5
v 5 10 5.5
v 6 2 5.5
v 6 9 5.5
v -7 7 4.5
v -7 8 4.5
v -6 3 4.5
v -6 7 4.5
v -5 1 4.5
v -5 2 4.5
v -5 3 4.5
v -5 8 4.5
v -5 9 4.5
v -5 10 4.5
v -4 1 4.5
v -4 2 4.5
v -4 5 4.5
v -4 9 4.5
v -4 10 4.5
v -4 11 4.5
v -3 3 4.5
v -3 4 4.5
v -3 5 4.5
v -3 6 4.5
v -1 3 4.5
v -1 4 4.5
v -1 5 4.5
v -1 6 4.5
v 0 4 4.5
v 0 5 4.5
v 1 3 4.5
v 1 4 4.5
v 2 3 4.5
v 2 4 4.5
v 2 5 4.5
v 2 6 4.5
v 4 3 4.5
v 4 4 4.5
v 4 5 4.5
v 4 6 4.5
v 5 1 4.5
v 5 2 4.5
v 5 5 4.5
v 5 9 4.5
v 5 10 4.5
v 5 11 4.5
v 6 1 4.5
v 6 2 4.5
v 6 8 4.5
v 6 9 4.5
v 6 10 4.5
v 7 2 4.5
v 7 8 4.5
v -7 9 3.5
v -7 10 3.5
v -6 2 3.5
v -6 3 3.5
v -6 8 3.5
v -6 9 3.5
v -5 2 3.5
v -5 3 3.5
v -5 8 3.5
v -5 10 3.5
v -4 0 3.5
v -4 1 3.5
v -3 0 3.5
v -3 1 3.5
v 4 0 3.5
v 4 1 3.5
v 5 0 3.5
v 5 1 3.5
v 6 8 3.5
v 6 9 3.5
v 7 8 3.5
v 7 9 3.5
v -3 0 -3.5
v -3 1 -3.5
v 4 0 -3.5
v 4 1 -3.5
v 4 2 -3.5
v 5 1 -3.5
v 5 2 -3.5
v -7 7 3.5
v -7 8 3.5
v -6 7 3.5
v -6 8 3.5
v -7 9 2.5
v -7 10 2.5
v -6 9 2.5
v -6 10 2.5
v -6 9 1.5
v -6 10 1.5
v -5 9 1.5
v -5 10 1.5
v 4 1 -1.5
v 4 2 -1.5
v 5 1 -1.5
v 5 2 -1.5
v -6 2 -3.5
v -6 3 -3.5
v -6 8 -3.5
v -6 9 -3.5
v -5 1 -3.5
v -5 2 -3.5
v -5 3 -3.5
v -5 8 -3.5
v -5 9 -3.5
v -4 0 -3.5
v -4 1 -3.5
v -4 2 -3.5
v -3 0 -3.5
v -3 1 -3.5
v 4 0 -3.5
v 4 1 -3.5
v 5 0 -3.5
v 5 1 -3.5
v 5 2 -3.5
v 6 1 -3.5
v 6 2 -3.5
v 6 3 -3.5
v 6 8 -3.5
v 6 9 -3.5
v 7 2 -3.5
v 7 3 -3.5
v 7 8 -3.5
v 7 9 -3.5
v -6 3 -4.5
v -6 8 -4.5
v -5 2 -4.5
v -5 3 -4.5
v -5 8 -4.5
v -5 9 -4.5
v -5 10 -4.5
v -4 1 -4.5
v -4 2 -4.5
v -4 3 -4.5
v -4 9 -4.5
v -4 10 -4.5
v -4 11 -4.5
v -3 0 -4.5
v -3 1 -4.5
v -3 2 -4.5
v -2 0 -4.5
v -2 1 -4.5
v -1 0 -4.5
v -1 1 -4.5
v 0 0 -4.5
v 0 1 -4.5
v 1 0 -4.5
v 1 1 -4.5
v 2 0 -4.5
v 2 1 -4.5
v 3 0 -4.5
v 3 1 -4.5
v 4 0 -4.5
v 4 1 -4.5
v 4 2 -4.5
v 5 1 -4.5
v 5 2 -4.5
v 5 3 -4.5
v 5 9 -4.5
v 5 10 -4.5
v 5 11 -4.5
v 6 2 -4.5
v 6 3 -4.5
v 6 8 -4.5
v 6 9 -4.5
v 6 10 -4.5
v 7 3 -4.5
v 7 8 -4.5
v -5 3 -5.5
v -5 9 -5.5
v -4 2 -5.5
v -4 3 -5.5
v -4 9 -5.5
v -4 10 -5.5
v -3 1 -5.5
v -3 2 -5.5
v -2 0 -5.5
v -2 1 -5.5
v -1 0 -5.5
v -1 1 -5.5
v 0 0 -5.5
v 0 1 -5.5
v 1 0 -5.5
v 1 1 -5.5
v 2 0 -5.5
v 2 1 -5.5
v 3 0 -5.5
v 3 1 -5.5
v 4 1 -5.5
v 4 2 -5.5
v 5 2 -5.5
v 5 3 -5.5
v 5 9 -5.5
v 5 10 -5.5
v 6 3 -5.5
v 6 9 -5.5
v -4 0 3.5
v -3 0 3.5
v 4 0 3.5
v 5 0 3.5
v -4 0 -3.5
v -3 0 -3.5
v 4 0 -3.5
v 5 0 -3.5
v -3 0 -4.5
v -2 0 -4.5
v -1 0 -4.5
v 0 0 -4.5
v 1 0 -4.5
v 2 0 -4.5
v 3 0 -4.5
v 4 0 -4.5
v -2 0 -5.5
v -1 0 -5.5
v 0 0 -5.5
v 1 0 -5.5
v 2 0 -5.5
v 3 0 -5.5
v -5 1 4.5
v -4 1 4.5
v 5 1 4.5
v 6 1 4.5
v -4 1 3.5
v -3 1 3.5
v 4 1 3.5
v 5 1 3.5
v -5 1 -3.5
v -4 1 -3.5
v -3 1 -3.5
v 4 1 -3.5
v 5 1 -3.5
v 6 1 -3.5
v -4 1 -4.5
v -3 1 -4.5
v -2 1 -4.5
v -1 1 -4.5
v 0 1 -4.5
v 1 1 -4.5
v 2 1 -4.5
v 3 1 -4.5
v 4 1 -4.5
v 5 1 -4.5
v -3 1 -5.5
v -2 1 -5.5
v -1 1 -5.5
v 0 1 -5.5
v 1 1 -5.5
v 2 1 -5.5
v 3 1 -5.5
v 4 1 -5.5
v -5 2 5.5
v -4 2 5.5
v 5 2 5.5
v 6 2 5.5
v -5 2 4.5
v -4 2 4.5
v 5 2 4.5
v 6 2 4.5
v 7 2 4.5
v -6 2 3.5
v -5 2 3.5
v 4 2 -1.5
v 5 2 -1.5
v -6 2 -3.5
v -5 2 -3.5
v -4 2 -3.5
v 4 2 -3.5
v 5 2 -3.5
v 6 2 -3.5
v 7 2 -3.5
v -5 2 -4.5
v -4 2 -4.5
v -3 2 -4.5
v 4 2 -4.5
v 5 2 -4.5
v 6 2 -4.5
v -4 2 -5.5
v -3 2 -5.5
v 4 2 -5.5
v 5 2 -5.5
v 1 3 5.5
v 2 3 5.5
v -6 3 4.5
v -5 3 4.5
v 1 3 4.5
v 2 3 4.5
v -6 3 3.5
v -5 3 3.5
v -6 3 -3.5
v -5 3 -3.5
v 6 3 -3.5
v 7 3 -3.5
v -6 3 -4.5
v -5 3 -4.5
v -4 3 -4.5
v 5 3 -4.5
v 6 3 -4.5
v 7 3 -4.5
v -5 3 -5.5
v -4 3 -5.5
v 5 3 -5.5
v 6 3 -5.5
v 0 4 5.5
v 1 4 5.5
v 0 4 4.5
v 1 4 4.5
v -4 5 5.5
v -3 5 5.5
v -1 5 5.5
v 0 5 5.5
v 4 5 5.5
v 5 5 5.5
v -4 5 4.5
v -3 5 4.5
v -1 5 4.5
v 0 5 4.5
v 4 5 4.5
v 5 5 4.5
v -3 6 5.5
v -1 6 5.5
v 2 6 5.5
v 4 6 5.5
v -3 6 4.5
v -1 6 4.5
v 2 6 4.5
v 4 6 4.5
v -7 7 4.5
v -6 7 4.5
v -7 7 3.5
v -6 7 3.5
v -7 9 3.5
v -6 9 3.5
v -7 9 2.5
v -6 9 2.5
v 4 1 -1.5
v 5 1 -1.5
v 4 1 -3.5
v 5 1 -3.5
v -7 8 4.5
v -5 8 4.5
v 6 8 4.5
v 7 8 4.5
v -7 8 3.5
v -6 8 3.5
v -5 8 3.5
v 6 8 3.5
v 7 8 3.5
v -6 8 -3.5
v -5 8 -3.5
v 6 8 -3.5
v 7 8 -3.5
v -6 8 -4.5
v -5 8 -4.5
v 6 8 -4.5
v 7 8 -4.5
v -5 9 5.5
v -4 9 5.5
v 5 9 5.5
v 6 9 5.5
v -5 9 4.5
v -4 9 4.5
v 5 9 4.5
v 6 9 4.5
v 6 9 3.5
v 7 9 3.5
v -6 9 1.5
v -5 9 1.5
v -6 9 -3.5
v -5 9 -3.5
v 6 9 -3.5
v 7 9 -3.5
v -5 9 -4.5
v -4 9 -4.5
v 5 9 -4.5
v 6 9 -4.5
v -5 9 -5.5
v -4 9 -5.5
v 5 9 -5.5
v 6 9 -5.5
v -4 10 5.5
v 5 10 5.5
v -5 10 4.5
v -4 10 4.5
v 5 10 4.5
v 6 10 4.5
v -7 10 3.5
v -5 10 3.5
v -7 10 2.5
v -6 10 2.5
v -6 10 1.5
v -5 10 1.5
v -5 10 -4.5
v -4 10 -4.5
v 5 10 -4.5
v 6 10 -4.5
v -4 10 -5.5
v 5 10 -5.5
v -4 11 4.5
v 5 11 4.5
v -4 11 -4.5
v 5 11 -4.5

# faces
f 3/3/1 2/3/1 1/3/1
f 4/3/1 2/3/1 3/3/1
f 7/3/1 6/3/1 5/3/1
f 8/3/1 6/3/1 7/3/1
f 12/3/1 10/3/1 9/3/1
f 13/3/1 10/3/1 12/3/1
f 15/3/1 12/3/1 11/3/1
f 15/3/1 14/3/1 13/3/1
f 15/3/1 13/3/1 12/3/1
f 16/3/1 14/3/1 15/3/1
f 17/3/1 14/3/1 16/3/1
f 18/3/1 14/3/1 17/3/1
f 19/3/1 14/3/1 18/3/1
f 20/3/1 18/3/1 17/3/1
f 21/3/1 18/3/1 20/3/1
f 22/3/1 18/3/1 21/3/1
f 23/3/1 18/3/1 22/3/1
f 24/3/1 22/3/1 21/3/1
f 25/3/1 22/3/1 24/3/1
f 29/3/1 27/3/1 26/3/1
f 30/3/1 27/3/1 29/3/1
f 31/3/1 27/3/1 30/3/1
f 33/3/1 29/3/1 28/3/1
f 33/3/1 30/3/1 29/3/1
f 34/3/1 30/3/1 33/3/1
f 35/3/1 32/3/1 31/3/1
f 36/3/1 32/3/1 35/3/1
f 38/3/1 33/3/1 28/3/1
f 41/3/1 37/3/1 36/3/1
f 42/3/1 39/3/1 38/3/1
f 42/3/1 38/3/1 28/3/1
f 43/3/1 39/3/1 42/3/1
f 45/3/1 41/3/1 40/3/1
f 46/3/1 37/3/1 41/3/1
f 46/3/1 41/3/1 45/3/1
f 47/3/1 37/3/1 46/3/1
f 48/3/1 39/3/1 43/3/1
f 49/3/1 39/3/1 48/3/1
f 50/3/1 45/3/1 44/3/1
f 50/3/1 46/3/1 45/3/1
f 51/3/1 46/3/1 50/3/1
f 54/3/1 53/3/1 52/3/1
f 55/3/1 53/3/1 54/3/1
f 57/3/1 56/3/1 55/3/1
f 58/3/1 56/3/1 57/3/1
f 60/3/1 59/3/1 58/3/1
f 61/3/1 59/3/1 60/3/1
f 66/3/1 63/3/1 62/3/1
f 67/3/1 63/3/1 66/3/1
f 68/3/1 65/3/1 64/3/1
f 69/3/1 65/3/1 68/3/1
f 70/3/1 68/3/1 67/3/1
f 71/3/1 68/3/1 70/3/1
f 74/3/1 73/3/1 72/3/1
f 75/3/1 73/3/1 74/3/1
f 77/3/1 76/3/1 75/3/1
f 78/3/1 76/3/1 77/3/1
f 81/3/1 80/3/1 79/3/1
f 82/3/1 80/3/1 81/3/1
f 85/3/1 84/3/1 83/3/1
f 86/3/1 84/3/1 85/3/1
f 89/3/1 88/3/1 87/3/1
f 90/3/1 88/3/1 89/3/1
f 93/3/1 92/3/1 91/3/1
f 94/3/1 92/3/1 93/3/1
f 97/3/1 96/3/1 95/3/1
f 98/3/1 96/3/1 97/3/1
f 101/3/1 100/3/1 99/3/1
f 102/3/1 100/3/1 101/3/1
f 105/3/1 104/3/1 103/3/1
f 106/3/1 104/3/1 105/3/1
f 109/3/1 108/3/1 107/3/1
f 110/3/1 108/3/1 109/3/1
f 115/3/1 112/3/1 111/3/1
f 116/3/1 112/3/1 115/3/1
f 117/3/1 114/3/1 113/3/1
f 118/3/1 114/3/1 117/3/1
f 119/3/2 120/3/2 121/3/2
f 121/3/2 120/3/2 122/3/2
f 123/3/2 124/3/2 125/3/2
f 125/3/2 124/3/2 126/3/2
f 127/3/2 128/3/2 129/3/2
f 129/3/2 128/3/2 130/3/2
f 131/3/2 132/3/2 133/3/2
f 133/3/2 132/3/2 134/3/2
f 135/3/2 136/3/2 137/3/2
f 137/3/2 136/3/2 138/3/2
f 139/3/2 140/3/2 141/3/2
f 139/3/2 141/3/2 142/3/2
f 139/3/2 142/3/2 143/3/2
f 143/3/2 142/3/2 144/3/2
f 145/3/2 146/3/2 147/3/2
f 147/3/2 146/3/2 148/3/2
f 149/3/2 150/3/2 152/3/2
f 152/3/2 150/3/2 153/3/2
f 151/1/2 152/1/2 155/1/2
f 155/1/2 152/1/2 156/1/2
f 153/3/2 154/3/2 157/3/2
f 157/3/2 154/3/2 158/3/2
f 159/3/2 160/3/2 161/3/2
f 161/3/2 160/3/2 162/3/2
f 162/3/2 163/3/2 164/3/2
f 164/3/2 163/3/2 165/3/2
f 165/3/2 166/3/2 167/3/2
f 167/3/2 166/3/2 168/3/2
f 169/3/2 170/3/2 173/3/2
f 173/3/2 170/3/2 174/3/2
f 171/3/2 172/3/2 175/3/2
f 175/3/2 172/3/2 176/3/2
f 174/3/2 175/3/2 177/3/2
f 177/3/2 175/3/2 178/3/2
f 179/3/2 180/3/2 182/3/2
f 182/3/2 180/3/2 183/3/2
f 183/3/2 184/3/2 185/3/2
f 185/3/2 184/3/2 186/3/2
f 181/3/2 182/3/2 188/3/2
f 186/3/2 187/3/2 191/3/2
f 188/3/2 189/3/2 192/3/2
f 181/3/2 188/3/2 192/3/2
f 192/3/2 189/3/2 193/3/2
f 193/3/2 189/3/2 194/3/2
f 190/3/2 191/3/2 195/3/2
f 191/3/2 187/3/2 196/3/2
f 195/3/2 191/3/2 196/3/2
f 196/3/2 187/3/2 197/3/2
f 193/3/2 194/3/2 198/3/2
f 194/3/2 195/3/2 198/3/2
f 195/3/2 196/3/2 198/3/2
f 198/3/2 196/3/2 199/3/2
f 200/3/2 201/3/2 202/3/2
f 200/3/2 202/3/2 204/3/2
f 202/3/2 203/3/2 204/3/2
f 204/3/2 203/3/2 205/3/2
f 205/3/2 203/3/2 206/3/2
f 206/3/2 203/3/2 207/3/2
f 205/3/2 206/3/2 208/3/2
f 208/3/2 206/3/2 209/3/2
f 212/3/3 211/3/3 210/3/3
f 213/3/3 211/3/3 212/3/3
f 214/3/3 211/3/3 213/3/3
f 216/3/3 215/3/3 214/3/3
f 216/3/3 214/3/3 213/3/3
f 217/3/3 215/3/3 216/3/3
f 219/3/3 215/3/3 217/3/3
f 221/3/3 219/3/3 218/3/3
f 223/3/3 221/3/3 220/3/3
f 224/3/3 223/3/3 222/3/3
f 225/3/3 215/3/3 219/3/3
f 225/3/3 223/3/3 224/3/3
f 225/3/3 219/3/3 221/3/3
f 225/3/3 221/3/3 223/3/3
f 227/3/3 215/3/3 225/3/3
f 229/3/3 227/3/3 226/3/3
f 230/3/3 215/3/3 227/3/3
f 230/3/3 227/3/3 229/3/3
f 231/3/3 215/3/3 230/3/3
f 232/3/3 229/3/3 228/3/3
f 232/3/3 230/3/3 229/3/3
f 233/3/3 230/3/3 232/3/3
f 237/3/3 235/3/3 234/3/3
f 240/3/3 237/3/3 236/3/3
f 241/3/3 235/3/3 237/3/3
f 241/3/3 237/3/3 240/3/3
f 244/3/3 239/3/3 238/3/3
f 245/3/3 239/3/3 244/3/3
f 247/3/3 243/3/3 242/3/3
f 248/3/3 243/3/3 247/3/3
f 250/1/3 246/1/3 245/1/3
f 250/1/3 245/1/3 244/1/3
f 251/1/3 246/1/3 250/1/3
f 252/1/3 246/1/3 251/1/3
f 254/1/3 250/1/3 244/1/3
f 254/2/3 251/2/3 250/2/3
f 255/4/3 252/4/3 251/4/3
f 255/2/3 251/2/3 254/2/3
f 256/1/3 253/1/3 252/1/3
f 256/4/3 252/4/3 255/4/3
f 257/1/3 253/1/3 256/1/3
f 258/1/3 255/1/3 254/1/3
f 258/1/3 256/1/3 255/1/3
f 259/1/3 256/1/3 258/1/3
f 260/1/3 254/1/3 244/1/3
f 260/1/3 258/1/3 254/1/3
f 261/1/3 258/1/3 260/1/3
f 262/1/3 260/1/3 244/1/3
f 266/2/3 263/2/3 262/2/3
f 266/1/3 262/1/3 244/1/3
f 267/4/3 264/4/3 263/4/3
f 267/2/3 263/2/3 266/2/3
f 268/1/3 265/1/3 264/1/3
f 268/4/3 264/4/3 267/4/3
f 269/1/3 265/1/3 268/1/3
f 270/1/3 266/1/3 244/1/3
f 270/1/3 267/1/3 266/1/3
f 270/1/3 268/1/3 267/1/3
f 271/1/3 268/1/3 270/1/3
f 272/1/3 268/1/3 271/1/3
f 274/3/3 249/3/3 248/3/3
f 275/3/3 249/3/3 274/3/3
f 276/3/3 271/3/3 270/3/3
f 277/3/3 271/3/3 276/3/3
f 279/3/3 274/3/3 273/3/3
f 280/3/3 274/3/3 279/3/3
f 281/3/3 278/3/3 277/3/3
f 282/3/3 278/3/3 281/3/3
f 288/3/3 284/3/3 283/3/3
f 289/3/3 286/3/3 285/3/3
f 290/3/3 286/3/3 289/3/3
f 291/3/3 288/3/3 287/3/3
f 292/3/3 284/3/3 288/3/3
f 292/3/3 288/3/3 291/3/3
f 295/3/3 294/3/3 293/3/3
f 296/3/3 294/3/3 295/3/3
f 299/3/3 298/3/3 297/3/3
f 300/3/3 298/3/3 299/3/3
f 303/3/3 302/3/3 301/3/3
f 304/3/3 302/3/3 303/3/3
f 307/3/3 306/3/3 305/3/3
f 308/3/3 306/3/3 307/3/3
f 310/3/3 309/3/3 308/3/3
f 311/3/3 309/3/3 310/3/3
f 312/3/4 313/3/4 314/3/4
f 314/3/4 313/3/4 315/3/4
f 316/3/4 317/3/4 318/3/4
f 318/3/4 317/3/4 319/3/4
f 320/3/4 321/3/4 322/3/4
f 322/3/4 321/3/4 323/3/4
f 324/1/4 325/1/4 326/1/4
f 326/1/4 325/1/4 327/1/4
f 328/3/4 329/3/4 333/3/4
f 333/3/4 329/3/4 334/3/4
f 330/3/4 331/3/4 335/3/4
f 335/3/4 331/3/4 336/3/4
f 332/3/4 333/3/4 338/3/4
f 338/3/4 333/3/4 339/3/4
f 337/3/4 338/3/4 340/3/4
f 340/3/4 338/3/4 341/3/4
f 342/3/4 343/3/4 344/3/4
f 344/3/4 343/3/4 345/3/4
f 345/3/4 346/3/4 347/3/4
f 347/3/4 346/3/4 348/3/4
f 348/3/4 349/3/4 352/3/4
f 352/3/4 349/3/4 353/3/4
f 350/3/4 351/3/4 354/3/4
f 354/3/4 351/3/4 355/3/4
f 356/3/4 357/3/4 359/3/4
f 359/3/4 357/3/4 360/3/4
f 358/3/4 359/3/4 364/3/4
f 364/3/4 359/3/4 365/3/4
f 361/3/4 362/3/4 366/3/4
f 366/3/4 362/3/4 367/3/4
f 363/3/4 364/3/4 370/3/4
f 370/3/4 364/3/4 371/3/4
f 369/3/4 370/3/4 372/3/4
f 372/3/4 370/3/4 373/3/4
f 374/3/4 375/3/4 376/3/4
f 376/3/4 375/3/4 377/3/4
f 378/3/4 379/3/4 380/3/4
f 380/3/4 379/3/4 381/3/4
f 382/3/4 383/3/4 384/3/4
f 384/3/4 383/3/4 385/3/4
f 385/3/4 386/3/4 387/3/4
f 387/3/4 386/3/4 388/3/4
f 367/3/4 368/3/4 391/3/4
f 391/3/4 368/3/4 392/3/4
f 388/3/4 389/3/4 393/3/4
f 393/3/4 389/3/4 394/3/4
f 390/3/4 391/3/4 396/3/4
f 396/3/4 391/3/4 397/3/4
f 394/3/4 395/3/4 398/3/4
f 398/3/4 395/3/4 399/3/4
f 400/3/4 401/3/4 403/3/4
f 403/3/4 401/3/4 404/3/4
f 402/3/4 403/3/4 407/3/4
f 404/3/4 405/3/4 407/3/4
f 403/3/4 404/3/4 407/3/4
f 406/3/4 407/3/4 409/3/4
f 408/3/4 409/3/4 410/3/4
f 409/3/4 407/3/4 411/3/4
f 410/3/4 409/3/4 411/3/4
f 411/3/4 407/3/4 413/3/4
f 412/3/4 413/3/4 414/3/4
f 413/3/4 407/3/4 415/3/4
f 414/3/4 413/3/4 415/3/4
f 415/3/4 407/3/4 417/3/4
f 416/3/4 417/3/4 418/3/4
f 417/3/4 407/3/4 419/3/4
f 418/3/4 417/3/4 419/3/4
f 419/3/4 407/3/4 420/3/4
f 407/3/4 405/3/4 421/3/4
f 420/3/4 407/3/4 421/3/4
f 421/3/4 405/3/4 422/3/4
f 422/3/4 405/3/4 423/3/4
f 423/3/4 405/3/4 424/3/4
f 424/3/4 405/3/4 425/3/4
f 423/3/4 424/3/4 426/3/4
f 426/3/4 424/3/4 427/3/4
f 432/3/5 429/3/5 428/3/5
f 433/3/5 429/3/5 432/3/5
f 434/3/5 431/3/5 430/3/5
f 435/3/5 431/3/5 434/3/5
f 436/3/5 434/3/5 433/3/5
f 437/3/5 434/3/5 436/3/5
f 438/3/5 434/3/5 437/3/5
f 439/3/5 434/3/5 438/3/5
f 440/3/5 434/3/5 439/3/5
f 441/3/5 434/3/5 440/3/5
f 442/3/5 434/3/5 441/3/5
f 443/3/5 434/3/5 442/3/5
f 444/3/5 438/3/5 437/3/5
f 445/3/5 438/3/5 444/3/5
f 446/3/5 440/3/5 439/3/5
f 447/3/5 440/3/5 446/3/5
f 448/3/5 442/3/5 441/3/5
f 449/3/5 442/3/5 448/3/5
f 454/3/5 451/3/5 450/3/5
f 454/1/5 452/1/5 451/1/5
f 455/1/5 452/1/5 454/1/5
f 456/1/5 452/1/5 455/1/5
f 457/3/5 453/3/5 452/3/5
f 457/1/5 452/1/5 456/1/5
f 458/3/5 454/3/5 450/3/5
f 459/3/5 454/3/5 458/3/5
f 460/1/5 456/1/5 455/1/5
f 461/1/5 456/1/5 460/1/5
f 462/3/5 453/3/5 457/3/5
f 463/3/5 453/3/5 462/3/5
f 464/3/5 460/3/5 459/3/5
f 465/3/5 460/3/5 464/3/5
f 472/3/5 462/3/5 461/3/5
f 473/3/5 462/3/5 472/3/5
f 474/3/5 466/3/5 465/3/5
f 475/3/5 466/3/5 474/3/5
f 476/3/5 468/3/5 467/3/5
f 477/3/5 468/3/5 476/3/5
f 478/3/5 470/3/5 469/3/5
f 479/3/5 470/3/5 478/3/5
f 480/3/5 472/3/5 471/3/5
f 481/3/5 472/3/5 480/3/5
f 486/3/5 483/3/5 482/3/5
f 487/3/5 483/3/5 486/3/5
f 488/3/5 485/3/5 484/3/5
f 489/3/5 485/3/5 488/3/5
f 495/3/5 492/3/5 491/3/5
f 496/3/5 492/3/5 495/3/5
f 498/1/5 494/1/5 493/1/5
f 499/1/5 494/1/5 498/1/5
f 500/3/5 490/3/5 489/3/5
f 501/3/5 490/3/5 500/3/5
f 502/3/5 497/3/5 496/3/5
f 503/3/5 497/3/5 502/3/5
f 506/3/5 500/3/5 499/3/5
f 507/3/5 500/3/5 506/3/5
f 508/3/5 504/3/5 503/3/5
f 509/3/5 504/3/5 508/3/5
f 510/3/5 506/3/5 505/3/5
f 511/3/5 506/3/5 510/3/5
f 516/3/5 513/3/5 512/3/5
f 517/3/5 513/3/5 516/3/5
f 518/3/5 515/3/5 514/3/5
f 519/3/5 515/3/5 518/3/5
f 524/3/5 521/3/5 520/3/5
f 525/3/5 521/3/5 524/3/5
f 528/3/5 523/3/5 522/3/5
f 529/3/5 523/3/5 528/3/5
f 530/3/5 526/3/5 525/3/5
f 531/3/5 526/3/5 530/3/5
f 532/3/5 528/3/5 527/3/5
f 533/3/5 528/3/5 532/3/5
f 536/3/5 535/3/5 534/3/5
f 537/3/5 535/3/5 536/3/5
f 544/3/5 539/3/5 538/3/5
f 545/3/5 539/3/5 544/3/5
f 546/3/5 541/3/5 540/3/5
f 547/3/5 541/3/5 546/3/5
f 548/3/5 543/3/5 542/3/5
f 549/3/5 543/3/5 548/3/5
f 554/3/5 551/3/5 550/3/5
f 555/3/5 551/3/5 554/3/5
f 556/3/5 553/3/5 552/3/5
f 557/3/5 553/3/5 556/3/5
f 560/3/5 559/3/5 558/3/5
f 561/3/5 559/3/5 560/3/5
f 564/3/5 563/3/5 562/3/5
f 565/3/5 563/3/5 564/3/5
f 566/3/6 567/3/6 568/3/6
f 568/3/6 567/3/6 569/3/6
f 570/3/6 571/3/6 574/3/6
f 574/3/6 571/3/6 575/3/6
f 575/3/6 571/3/6 576/3/6
f 572/3/6 573/3/6 577/3/6
f 577/3/6 573/3/6 578/3/6
f 579/3/6 580/3/6 583/3/6
f 583/3/6 580/3/6 584/3/6
f 581/3/6 582/3/6 585/3/6
f 585/3/6 582/3/6 586/3/6
f 587/3/6 588/3/6 591/3/6
f 591/3/6 588/3/6 592/3/6
f 589/3/6 590/3/6 593/3/6
f 593/3/6 590/3/6 594/3/6
f 597/3/6 598/3/6 599/3/6
f 599/3/6 598/3/6 600/3/6
f 595/3/6 596/3/6 601/3/6
f 601/3/6 596/3/6 602/3/6
f 603/3/6 604/3/6 607/3/6
f 607/3/6 604/3/6 608/3/6
f 605/3/6 606/3/6 609/3/6
f 609/3/6 606/3/6 610/3/6
f 611/3/6 612/3/6 614/3/6
f 614/3/6 612/3/6 615/3/6
f 613/3/6 614/3/6 618/3/6
f 617/3/6 618/3/6 619/3/6
f 619/3/6 618/3/6 620/3/6
f 620/3/6 618/3/6 621/3/6
f 618/3/6 614/3/6 622/3/6
f 621/3/6 618/3/6 622/3/6
f 622/3/6 614/3/6 623/3/6
f 623/3/6 614/3/6 624/3/6
f 615/3/6 616/3/6 625/3/6
f 625/3/6 616/3/6 626/3/6
f 624/3/6 625/3/6 627/3/6
f 627/3/6 625/3/6 628/3/6
f 629/3/6 630/3/6 631/3/6
f 631/3/6 630/3/6 632/3/6
